<svg width="1240" height="614" viewBox="0 0 1240 614" fill="none" xmlns="http://www.w3.org/2000/svg">
<g clip-path="url(#clip0_1130:4219)">
<path d="M468.2 504.9H471.8V541.3H488.4V544.6H468.2V504.9Z" fill="#878788"/>
<path d="M508.2 545.8C498.8 545.8 492.8 538.7 492.8 530.4C492.8 521.5 498.5 515 507.1 515C514.8 515 519.6 520.5 519.6 527.2C519.6 528.1 519.5 528.9 519.4 529.6H496.3C496.3 529.8 496.3 530.1 496.3 530.3C496.3 537.6 501.2 542.8 508.3 542.8C512.3 542.8 515.7 540.9 517.8 538L520.4 540C517.6 543.5 513.4 545.8 508.2 545.8ZM496.5 526.8H516.1C515.9 521.8 512.5 517.8 506.9 517.8C501.6 517.9 497.6 521.2 496.5 526.8Z" fill="#878788"/>
<path d="M542.9 538.9C545.1 541.6 547.6 542.9 550.6 542.9C554.3 542.9 556.5 540.5 556.5 537.6C556.5 530.3 541.8 532.8 541.8 522.7C541.8 518.6 545.3 515 550.6 515C554.5 515 557.7 516.9 559.7 519.6L557.2 521.6C555.6 519.2 553.3 517.9 550.7 517.9C547.1 517.9 545.1 520.1 545.1 522.7C545.1 530.1 559.8 527.9 559.8 537.5C559.8 542.4 555.9 545.8 550.7 545.8C546.4 545.8 542.9 544.1 540.4 540.9L542.9 538.9Z" fill="#878788"/>
<path d="M580.8 545.8C571.4 545.8 565.4 538.7 565.4 530.4C565.4 521.5 571.1 515 579.7 515C587.4 515 592.2 520.5 592.2 527.2C592.2 528.1 592.1 528.9 592 529.6H568.9C568.9 529.8 568.9 530.1 568.9 530.3C568.9 537.6 573.8 542.8 580.9 542.8C584.9 542.8 588.3 540.9 590.4 538L593 540C590.3 543.5 586.1 545.8 580.8 545.8ZM569.2 526.8H588.8C588.6 521.8 585.2 517.8 579.6 517.8C574.3 517.9 570.3 521.2 569.2 526.8Z" fill="#878788"/>
<path d="M601.2 516H604.5V520.1C606.8 517.1 609.5 515.4 613.4 515.4C614.2 515.4 615 515.5 615.8 515.7V518.9C614.9 518.7 614.2 518.5 613.2 518.5C609.3 518.5 606.7 520.4 604.6 524V544.5H601.3V516H601.2Z" fill="#878788"/>
<path d="M623.3 516L633.6 541.4L643.8 516H647.4L635.8 544.6H631.4L619.8 516H623.3Z" fill="#878788"/>
<path d="M653.3 504.5C653.3 503.1 654.5 502 655.9 502C657.3 502 658.5 503.1 658.5 504.5C658.5 506 657.4 507.1 655.9 507.1C654.5 507 653.3 505.9 653.3 504.5ZM654.3 516H657.6V544.6H654.3V516Z" fill="#878788"/>
<path d="M690.9 537.8L693.6 539.9C691 543.4 686.8 545.7 681.6 545.7C672.3 545.7 666.2 538.6 666.2 530.3C666.2 522 672.3 514.9 681.6 514.9C686.8 514.9 691 517.2 693.6 520.7L690.9 522.8C688.9 519.9 685.6 518 681.6 518C674.6 518 669.7 523.5 669.7 530.3C669.7 537.1 674.6 542.6 681.7 542.6C685.6 542.6 688.8 540.7 690.9 537.8Z" fill="#878788"/>
<path d="M712.7 545.8C703.3 545.8 697.3 538.7 697.3 530.4C697.3 521.5 703 515 711.5 515C719.2 515 724 520.5 724 527.2C724 528.1 723.9 528.9 723.8 529.6H700.7C700.7 529.8 700.7 530.1 700.7 530.3C700.7 537.6 705.6 542.8 712.7 542.8C716.7 542.8 720.1 540.9 722.2 538L724.8 540C722.1 543.5 717.9 545.8 712.7 545.8ZM701 526.8H720.6C720.4 521.8 717 517.8 711.4 517.8C706.1 517.9 702.1 521.2 701 526.8Z" fill="#878788"/>
<path d="M748.3 516H751.6V520.1C754.3 516.8 758.1 514.9 762.6 514.9C771.5 514.9 777.4 522 777.4 530.3C777.4 538.6 771.5 545.7 762.6 545.7C758.1 545.7 754.3 543.8 751.6 540.5V558.6H748.3V516ZM751.7 524V536.7C754.1 540.6 758.1 542.6 762.4 542.6C769.2 542.6 773.9 537.1 773.9 530.3C773.9 523.5 769.2 518 762.4 518C758 518.1 754 520.2 751.7 524Z" fill="#878788"/>
<path d="M806.5 516H809.8V532.4C809.8 540.9 804.9 545.7 797.6 545.7C790.2 545.7 785.3 540.9 785.3 532.4V516H788.6V532.5C788.6 539 792.2 542.6 797.6 542.6C802.9 542.6 806.5 539 806.5 532.5V516Z" fill="#878788"/>
<path d="M834.7 545.8C830.2 545.8 826.4 543.9 823.7 540.6V544.7H820.4V502.1H823.7V520.1C826.4 516.8 830.2 514.9 834.7 514.9C843.6 514.9 849.5 522 849.5 530.3C849.5 538.7 843.6 545.8 834.7 545.8ZM823.7 524V536.7C826.1 540.6 830.1 542.6 834.4 542.6C841.2 542.6 845.9 537.1 845.9 530.3C845.9 523.5 841.2 518 834.4 518C830 518.1 826.1 520.2 823.7 524Z" fill="#878788"/>
<path d="M858.1 502.1H861.4V544.7H858.1V502.1Z" fill="#878788"/>
<path d="M871.8 504.5C871.8 503.1 873 502 874.4 502C875.8 502 877 503.1 877 504.5C877 506 875.9 507.1 874.4 507.1C872.9 507.1 871.8 505.9 871.8 504.5ZM872.7 516H876V544.6H872.7V516Z" fill="#878788"/>
<path d="M909.3 537.8L912 539.9C909.4 543.4 905.2 545.7 900 545.7C890.7 545.7 884.6 538.6 884.6 530.3C884.6 522 890.7 514.9 900 514.9C905.2 514.9 909.4 517.2 912 520.7L909.3 522.8C907.3 519.9 904 518 900 518C893 518 888.1 523.5 888.1 530.3C888.1 537.1 893 542.6 900.1 542.6C904 542.6 907.3 540.7 909.3 537.8Z" fill="#878788"/>
<path d="M934.8 516H938.1V520.1C940.8 516.8 944.6 514.9 949.1 514.9C958 514.9 963.9 522 963.9 530.3C963.9 538.6 958 545.7 949.1 545.7C944.6 545.7 940.8 543.8 938.1 540.5V558.6H934.8V516ZM938.1 524V536.7C940.5 540.6 944.5 542.6 948.8 542.6C955.6 542.6 960.3 537.1 960.3 530.3C960.3 523.5 955.6 518 948.8 518C944.5 518.1 940.5 520.2 938.1 524Z" fill="#878788"/>
<path d="M1000.8 530.4C1000.8 538.6 994.6 545.8 985.4 545.8C976.3 545.8 970.1 538.5 970.1 530.4C970.1 522.2 976.3 515 985.4 515C994.6 514.9 1000.8 522.2 1000.8 530.4ZM997.2 530.4C997.2 523.8 992.2 518.1 985.4 518.1C978.4 518.1 973.5 523.8 973.5 530.4C973.5 536.9 978.4 542.7 985.4 542.7C992.2 542.6 997.2 536.8 997.2 530.4Z" fill="#878788"/>
<path d="M1029.8 516H1033.1V532.4C1033.1 540.9 1028.2 545.7 1020.9 545.7C1013.5 545.7 1008.6 540.9 1008.6 532.4V516H1011.9V532.5C1011.9 539 1015.5 542.6 1020.9 542.6C1026.2 542.6 1029.8 539 1029.8 532.5V516Z" fill="#878788"/>
<path d="M1043.7 516H1047V520.1C1049.3 517.1 1052 515.4 1055.9 515.4C1056.7 515.4 1057.5 515.5 1058.3 515.7V518.9C1057.4 518.7 1056.7 518.5 1055.7 518.5C1051.8 518.5 1049.2 520.4 1047.1 524V544.5H1043.8V516H1043.7Z" fill="#878788"/>
<path d="M1081.2 516H1084.5V519.8C1086.8 516.8 1090 514.9 1094.2 514.9C1098.6 514.9 1102.2 517 1103.9 521C1106.3 517.3 1109.6 514.9 1114.5 514.9C1120.7 514.9 1125.2 519 1125.2 526.5V544.6H1121.9V526.6C1121.9 521 1118.7 518 1114.1 518C1110.1 518 1107.2 520 1104.8 524.1C1104.9 524.8 1105 525.6 1105 526.4V544.5H1101.7V526.5C1101.7 520.9 1098.6 517.9 1093.9 517.9C1089.6 517.9 1086.6 520.3 1084.7 523.9V544.5H1081.4V516H1081.2Z" fill="#878788"/>
<path d="M1134.9 504.5C1134.9 503.1 1136.1 502 1137.5 502C1138.9 502 1140.1 503.1 1140.1 504.5C1140.1 506 1139 507.1 1137.5 507.1C1136.1 507 1134.9 505.9 1134.9 504.5ZM1135.8 516H1139.1V544.6H1135.8V516Z" fill="#878788"/>
<path d="M1163.2 545.8C1153.8 545.8 1147.8 538.7 1147.8 530.4C1147.8 521.5 1153.5 515 1162.1 515C1169.8 515 1174.6 520.5 1174.6 527.2C1174.6 528.1 1174.5 528.9 1174.4 529.6H1151.3C1151.3 529.8 1151.3 530.1 1151.3 530.3C1151.3 537.6 1156.2 542.8 1163.3 542.8C1167.3 542.8 1170.7 540.9 1172.8 538L1175.4 540C1172.6 543.5 1168.4 545.8 1163.2 545.8ZM1151.5 526.8H1171.1C1170.9 521.8 1167.5 517.8 1161.9 517.8C1156.6 517.9 1152.6 521.2 1151.5 526.8Z" fill="#878788"/>
<path d="M1203.5 516H1206.8V532.4C1206.8 540.9 1201.9 545.7 1194.6 545.7C1187.2 545.7 1182.3 540.9 1182.3 532.4V516H1185.7V532.5C1185.7 539 1189.3 542.6 1194.7 542.6C1200 542.6 1203.6 539 1203.6 532.5V516H1203.5Z" fill="#878788"/>
<path d="M1213 544.7L1223.8 529.8L1213.8 516.1H1217.7L1226.1 527.6L1234.4 516.1H1238.3L1228.3 529.8L1239.2 544.7H1235.3L1226 532L1216.7 544.7H1213Z" fill="#878788"/>
<path d="M467.2 584.2H470.5V588.3C472.8 585.3 475.5 583.6 479.4 583.6C480.2 583.6 481 583.7 481.8 583.9V587.1C480.9 586.9 480.2 586.7 479.2 586.7C475.3 586.7 472.7 588.6 470.6 592.2V612.7H467.3V584.2H467.2Z" fill="#878788"/>
<path d="M500.2 613.9C490.8 613.9 484.8 606.8 484.8 598.5C484.8 589.6 490.5 583.1 499.1 583.1C506.8 583.1 511.6 588.6 511.6 595.3C511.6 596.2 511.5 597 511.4 597.7H488.3C488.3 597.9 488.3 598.2 488.3 598.4C488.3 605.7 493.2 610.9 500.3 610.9C504.3 610.9 507.7 609 509.8 606.1L512.4 608.1C509.6 611.7 505.4 613.9 500.2 613.9ZM488.6 595H508.2C508 590 504.6 586 499 586C493.6 586 489.6 589.4 488.6 595ZM497.3 579.6L503.3 570.2H507.2L500.6 579.6H497.3Z" fill="#878788"/>
<path d="M520.5 584.2H523.8V588.1C526.3 585 529.5 583 534 583C540.5 583 545.2 587.3 545.2 595.2V612.7H541.8V595.3C541.8 589.4 538.5 586.2 533.5 586.2C529 586.2 525.9 588.5 523.7 592.2V612.8H520.4V584.2H520.5Z" fill="#878788"/>
<path d="M584 598.5C584 606.7 577.8 613.9 568.6 613.9C559.5 613.9 553.3 606.6 553.3 598.5C553.3 590.3 559.5 583.1 568.6 583.1C577.8 583.1 584 590.3 584 598.5ZM580.4 598.5C580.4 591.9 575.4 586.2 568.6 586.2C561.6 586.2 556.7 591.9 556.7 598.5C556.7 605 561.6 610.8 568.6 610.8C575.4 610.8 580.4 605 580.4 598.5Z" fill="#878788"/>
<path d="M591.2 584.2L601.5 609.6L611.7 584.2H615.3L603.7 612.8H599.3L587.7 584.2H591.2Z" fill="#878788"/>
<path d="M634.4 613.9C625 613.9 619 606.8 619 598.5C619 589.6 624.7 583.1 633.3 583.1C641 583.1 645.8 588.6 645.8 595.3C645.8 596.2 645.7 597 645.6 597.7H622.5C622.5 597.9 622.5 598.2 622.5 598.4C622.5 605.7 627.4 610.9 634.5 610.9C638.5 610.9 641.9 609 644 606.1L646.6 608.1C643.8 611.7 639.6 613.9 634.4 613.9ZM622.7 595H642.3C642.1 590 638.7 586 633.1 586C627.8 586 623.8 589.4 622.7 595Z" fill="#878788"/>
<path d="M654.7 584.2H658V588.3C660.3 585.3 663 583.6 666.9 583.6C667.7 583.6 668.5 583.7 669.3 583.9V587.1C668.4 586.9 667.7 586.7 666.7 586.7C662.8 586.7 660.2 588.6 658.1 592.2V612.7H654.8V584.2H654.7Z" fill="#878788"/>
<path d="M692.2 584.2H695.5V588C697.8 585 701 583.1 705.2 583.1C709.6 583.1 713.2 585.2 714.9 589.2C717.3 585.5 720.6 583.1 725.5 583.1C731.7 583.1 736.2 587.2 736.2 594.7V612.8H732.9V594.8C732.9 589.2 729.7 586.2 725.1 586.2C721.1 586.2 718.2 588.2 715.8 592.3C715.9 593 716 593.8 716 594.6V612.7H712.7V594.7C712.7 589.1 709.6 586.1 704.9 586.1C700.6 586.1 697.6 588.5 695.7 592.1V612.7H692.4V584.2H692.2Z" fill="#878788"/>
<path d="M774.9 598.5C774.9 606.7 768.7 613.9 759.5 613.9C750.4 613.9 744.2 606.6 744.2 598.5C744.2 590.3 750.4 583.1 759.5 583.1C768.7 583.1 774.9 590.3 774.9 598.5ZM771.3 598.5C771.3 591.9 766.3 586.2 759.5 586.2C752.5 586.2 747.6 591.9 747.6 598.5C747.6 605 752.5 610.8 759.5 610.8C766.3 610.8 771.3 605 771.3 598.5Z" fill="#878788"/>
<path d="M783.4 584.2H786.7V588.1C789.2 585 792.4 583 796.9 583C803.4 583 808.1 587.3 808.1 595.2V612.7H804.7V595.3C804.7 589.4 801.4 586.2 796.4 586.2C791.9 586.2 788.8 588.5 786.6 592.2V612.8H783.3V584.2H783.4Z" fill="#878788"/>
<path d="M834.1 570.2H837.4V588.1C839.9 584.9 843.1 583 847.6 583C854.1 583 858.8 587.3 858.8 595.2V612.7H855.5V595.3C855.5 589.4 852.2 586.2 847.2 586.2C842.7 586.2 839.6 588.6 837.4 592.2V612.8H834.1V570.2V570.2Z" fill="#878788"/>
<path d="M867.9 605.9C867.9 601.6 871.2 598.6 877.2 597.6L887.4 595.9V593.2C887.4 588.6 884.2 586.1 879.7 586.1C876 586.1 873 587.7 871.1 590.5L868.5 588.5C870.9 585.2 874.9 583 879.8 583C886.4 583 890.7 586.9 890.7 593.2V612.8H887.4V608.7C885 611.9 881.1 613.6 877.1 613.6C871.6 613.6 867.9 610.6 867.9 605.9ZM877.5 610.7C881.6 610.7 885.2 608.7 887.4 605V598.5L877.9 600.1C873.4 600.9 871.3 603 871.3 605.8C871.3 608.6 873.7 610.7 877.5 610.7Z" fill="#878788"/>
<path d="M915.7 613.9C911.2 613.9 907.4 612 904.7 608.7V612.8H901.4V570.2H904.7V588.3C907.4 585 911.2 583.1 915.7 583.1C924.6 583.1 930.5 590.2 930.5 598.5C930.5 606.8 924.6 613.9 915.7 613.9ZM904.8 592.1V604.8C907.2 608.7 911.2 610.7 915.5 610.7C922.3 610.7 927 605.2 927 598.4C927 591.6 922.3 586.1 915.5 586.1C911.1 586.2 907.1 588.3 904.8 592.1Z" fill="#878788"/>
<path d="M938.2 572.6C938.2 571.2 939.4 570.1 940.8 570.1C942.2 570.1 943.4 571.2 943.4 572.6C943.4 574.1 942.3 575.2 940.8 575.2C939.3 575.2 938.2 574.1 938.2 572.6ZM939.1 584.2H942.4V612.8H939.1V584.2Z" fill="#878788"/>
<path d="M955.2 587.2H949.8V584.2H955.2V577H958.6V584.2H969.3V587.2H958.6V603.8C958.6 609 961.3 610.3 965.1 610.3C966.9 610.3 968.2 610.1 969.3 609.7V612.8C968 613.3 966.6 613.5 964.8 613.5C959 613.5 955.2 610.9 955.2 603.9V587.2V587.2Z" fill="#878788"/>
<path d="M975.6 605.9C975.6 601.6 978.9 598.6 984.9 597.6L995.1 595.9V593.2C995.1 588.6 991.9 586.1 987.4 586.1C983.7 586.1 980.7 587.7 978.8 590.5L976.2 588.5C978.6 585.2 982.6 583 987.5 583C994.1 583 998.4 586.9 998.4 593.2V612.8H995.1V608.7C992.7 611.9 988.8 613.6 984.8 613.6C979.3 613.6 975.6 610.6 975.6 605.9ZM985.2 610.7C989.3 610.7 992.9 608.7 995.1 605V598.5L985.6 600.1C981.1 600.9 979 603 979 605.8C979 608.6 981.4 610.7 985.2 610.7Z" fill="#878788"/>
<path d="M1010.6 587.2H1005.2V584.2H1010.6V577H1014V584.2H1024.7V587.2H1014V603.8C1014 609 1016.7 610.3 1020.5 610.3C1022.3 610.3 1023.6 610.1 1024.7 609.7V612.8C1023.4 613.3 1022 613.5 1020.2 613.5C1014.4 613.5 1010.6 610.9 1010.6 603.9V587.2V587.2Z" fill="#878788"/>
<path d="M464.9 135.7H545.5V159.6H492.9V191.6H537.6V215.5H492.9V274H464.8V135.7H464.9Z" fill="#253472"/>
<path d="M562.7 174.4H587.8V184.3C594.3 177.6 602.8 172.4 614.1 172.4C617.5 172.4 620.4 173 622.8 173.8V200.1C619.6 199.3 616.3 198.7 611.7 198.7C599.5 198.7 591.5 205.4 587.8 211.6V274.1H562.7V174.4Z" fill="#253472"/>
<path d="M633.1 247.7C633.1 232.5 644.8 220.8 666.3 217.3L696.3 212.2V209.6C696.3 199.1 688.4 192.4 677.1 192.4C667.4 192.4 659.3 196.5 654.8 204.3L636.2 190.3C645.1 178.1 659.9 170.5 677.9 170.5C706.7 170.5 721.6 187.7 721.6 209.6V274H696.3V264.7C690 272.6 678.3 277.9 666.7 277.9C646.7 278 633.1 266.5 633.1 247.7ZM671.8 257.8C683.1 257.8 691.2 251.9 696.3 243.8V230.1L672.8 234.2C662.1 236 658 240.3 658 246.7C658 253.1 663.3 257.8 671.8 257.8Z" fill="#253472"/>
<path d="M750.3 174.4H775.4V182.3C782.3 175.6 791.6 170.4 804.8 170.4C826.3 170.4 843.5 185.2 843.5 214.7V274H818.1V215.7C818.1 202.5 810.8 194.2 798.5 194.2C785.8 194.2 779.1 202.7 775.4 209V274H750.3V174.4Z" fill="#253472"/>
<path d="M942 242.6L962 257.8C952.7 270 938.1 278 919.9 278C885.5 278 865 253.3 865 224.2C865 195.2 885.6 170.4 919.9 170.4C938.1 170.4 952.7 178.3 962 190.6L942 205.8C937.3 198.9 929.8 194.1 919.5 194.1C903.1 194.1 891 206.7 891 224.1C891 241.7 903.1 254.1 919.9 254.1C929.5 254.2 937.2 249.5 942 242.6Z" fill="#253472"/>
<path d="M1025 278C989.6 278 969.7 253.3 969.7 224.2C969.7 194.7 988.3 170.4 1020.9 170.4C1048.6 170.4 1066.7 189 1066.7 215.1C1066.7 220.6 1065.9 226 1065.1 229.3H995.3C996.9 245.7 1008.3 255.4 1025.3 255.4C1036.2 255.4 1045.1 250.7 1050.4 243.5L1068.4 257.7C1059.2 270.2 1043.8 278 1025 278ZM996.9 210.4H1041.8C1041.4 200.5 1034.1 191.4 1020.9 191.4C1008.6 191.4 1000.3 197.3 996.9 210.4Z" fill="#253472"/>
<path d="M464.9 316.5H507.2C537.6 316.5 556.4 332.1 556.4 357.8C556.4 374.4 548.3 386.8 534.3 393.6L577.8 454.9H544.2L507.4 399H493V454.9H464.9V316.5ZM493 340.4V375H508.8C520.7 375 527.6 368.7 527.6 357.4C527.6 346.9 520.7 340.4 508.8 340.4H493Z" fill="#E10E17"/>
<path d="M639.6 458.8C604.2 458.8 584.3 434.1 584.3 405C584.3 375.5 602.9 351.2 635.5 351.2C663.2 351.2 681.3 369.8 681.3 395.9C681.3 401.4 680.5 406.8 679.7 410.1H609.9C611.5 426.5 622.9 436.2 639.9 436.2C650.8 436.2 659.7 431.5 665 424.3L683 438.5C673.8 451.1 658.4 458.8 639.6 458.8ZM611.6 391.2H656.5C656.1 381.3 648.8 372.2 635.5 372.2C623.2 372.2 614.9 378.1 611.6 391.2ZM625.2 339.4L645.8 306.6H673.1L649.4 339.4H625.2Z" fill="#E10E17"/>
<path d="M705.8 355.2H730.9V363.1C737.8 356.4 747.1 351.2 760.3 351.2C781.8 351.2 799 366 799 395.5V454.8H773.5V396.5C773.5 383.3 766.2 375 753.9 375C741.2 375 734.5 383.5 730.8 389.8V454.8H705.7L705.8 355.2Z" fill="#E10E17"/>
<path d="M929.5 405C929.5 434.8 907.4 458.8 874.9 458.8C842.4 458.8 820.3 434.9 820.3 405C820.3 375.1 842.4 351.2 874.9 351.2C907.4 351.2 929.5 375.2 929.5 405ZM903.4 405C903.4 387.6 891.3 375 875.3 375C858.7 375 846.4 387.7 846.4 405C846.4 422.3 858.6 435 875.3 435C891.4 435 903.4 422.2 903.4 405Z" fill="#E10E17"/>
<path d="M963.9 355.2L989.8 426.4L1015.5 355.2H1042.6L1006.2 454.8H973.2L937 355.2H963.9Z" fill="#E10E17"/>
<path d="M1055.8 373.4L1073.6 316.5H1102.1L1079.2 373.4H1055.8Z" fill="#E10E17"/>
<path fill-rule="evenodd" clip-rule="evenodd" d="M302.7 215.5C299.5 215.1 296.2 215.2 293 215.8C289.8 216.3 286.5 217.3 283.5 218.8C280.5 220.2 277.6 222.1 275.1 224.4C272.7 226.7 270.6 229.5 269.9 232.9L268.9 232.8C268.7 229 270.4 225.4 272.7 222.3C275 219.3 277.7 216.6 280.8 214.3C287.1 209.9 295 207.3 303.1 207.3C307.1 207.3 311.3 207.7 315.3 208.9C316.5 209.3 317.7 209.8 318.9 210.3C316.4 204.4 313.4 198.7 309.8 193.4C287.1 159.4 246.1 139.6 205.2 138.8C164.3 137.9 124.1 154.8 93 181.4L95.8 179.9C97.8 178.6 99.8 177.5 102 176.6L95.8 179.9C79.9 190.2 73.2 211.7 69.1 230.9C64.7 251.4 60.8 272.3 62.5 293.2C64.2 314.1 72.1 335.2 87.9 349C104.4 363.4 127.2 368.1 149 369.3C180.6 371.1 212.6 366.6 242.4 356.1C269.1 346.8 295 331.9 311.1 308.7C327.5 285 331.4 254.3 324.3 226.4C322.7 225.1 321.2 223.9 319.5 222.9C314.4 219.8 309.2 216.3 302.7 215.5ZM227.6 236.6C226.7 232.7 224.2 229.6 221.3 227C218.3 224.4 215 222.3 211.4 220.8C207.9 219.3 204.1 218.2 200.4 217.8C196.7 217.3 192.9 217.3 189.2 217.9C181.8 219 176 223.3 170.1 227.1C164.1 231.1 159 236.3 153.7 243.2L152.6 242.9C152 238.5 152.9 233.9 154.6 229.7C156.3 225.4 159 221.5 162.4 218.3C165.8 215 169.9 212.4 174.5 210.9C179.1 209.4 183.8 208.7 188.5 208.6C197.8 208.3 207 211 214.4 215.8C218.1 218.2 221.4 221.3 224.1 224.7C226.8 228.1 228.9 232.2 228.9 236.6H227.6Z" fill="#253472"/>
<path fill-rule="evenodd" clip-rule="evenodd" d="M167.7 23.7C163.1 27.1 158.7 30.7 154.1 34.3L140.9 45.3C123.4 60.1 108.1 77.3 92.2 93.7C76.3 110.2 60.7 126.8 45.2 143.7C29.9 160.7 14.7 177.8 0 195.3L1.10001 196.3C17.6 180.4 33.9 164.5 50.6 148.9C67.1 133.1 83.8 117.6 100.6 102.2C117.4 86.8 135.2 72.5 151.2 56.2C159.2 48.1 167.2 39.9999 174.9 31.4999C182.7 23.0999 190.3 14.4999 197.4 5.29994L196.4 4.19995C186.3 10.2 176.9 16.8 167.7 23.7Z" fill="#253472"/>
<path fill-rule="evenodd" clip-rule="evenodd" d="M421.1 210.1C405.4 190.1 388.4 171.5 370.8 153.4C353.2 135.4 333.8 119.1 315.4 101.9L259.7 50.7C241 33.8 222.4 16.8 203.5 0L202.5 1.10001C219.7 19.5 237.3 37.6 254.6 55.9L307.2 110.2C324.9 128.2 341.6 147.1 360.1 164.2C378.6 181.3 397.7 197.8 418.1 213L421.3 210.2C421.2 210.3 421.1 210.2 421.1 210.1Z" fill="#253472"/>
</g>
<defs>
<clipPath id="clip0_1130:4219">
<rect width="1239.2" height="613.9" fill="white"/>
</clipPath>
</defs>
</svg>